<svg xmlns="http://www.w3.org/2000/svg" width="256" height="256" viewBox="0 0 100 100"><rect width="100" height="100" fill="#f5a623" rx="50"/><path fill="#fff" d="M60.06 63.52L60.06 63.52Q60.06 60.20 57.71 58.42Q55.37 56.64 49.28 54.67Q43.18 52.70 39.63 50.78L39.63 50.78Q29.94 45.55 29.94 36.68L29.94 36.68Q29.94 32.07 32.54 28.46Q35.14 24.84 40 22.81Q44.86 20.78 50.92 20.78L50.92 20.78Q57.01 20.78 61.78 22.99Q66.54 25.20 69.18 29.22Q71.82 33.24 71.82 38.36L71.82 38.36L60.10 38.36Q60.10 34.45 57.64 32.29Q55.18 30.12 50.72 30.12L50.72 30.12Q46.43 30.12 44.04 31.93Q41.66 33.75 41.66 36.72L41.66 36.72Q41.66 39.49 44.45 41.37Q47.25 43.24 52.68 44.88L52.68 44.88Q62.68 47.89 67.25 52.34Q71.82 56.80 71.82 63.44L71.82 63.44Q71.82 70.82 66.23 75.02Q60.64 79.22 51.19 79.22L51.19 79.22Q44.63 79.22 39.24 76.82Q33.85 74.41 31.02 70.23Q28.18 66.05 28.18 60.55L28.18 60.55L39.94 60.55Q39.94 69.96 51.19 69.96L51.19 69.96Q55.37 69.96 57.71 68.26Q60.06 66.56 60.06 63.52Z"/></svg>